<svg width="22" height="22" fill="currentColor" xmlns="http://www.w3.org/2000/svg"><g clip-path="url(#a)" fill="currentColor"><path d="M19.182 11.075v-2.53c0-.857-.666-1.555-1.506-1.623l-2.35-4.103a1.616 1.616 0 0 0-2.221-.599L5.05 6.91H3.636C2.734 6.91 2 7.642 2 8.545v9.818C2 19.266 2.734 20 3.636 20h13.91c.902 0 1.636-.734 1.636-1.636v-2.53c.475-.17.818-.62.818-1.152v-2.455c0-.532-.343-.982-.818-1.152ZM16.725 6.91h-3.566l2.674-1.557.892 1.557Zm-1.298-2.267L11.533 6.91H9.918l5.105-2.972.404.705Zm-1.91-1.715a.802.802 0 0 1 1.099.298v.002L8.293 6.909H6.677l6.84-3.982Zm4.846 15.437a.82.82 0 0 1-.818.818H3.636a.82.82 0 0 1-.818-.818V8.546a.82.82 0 0 1 .818-.819h13.91a.82.82 0 0 1 .817.819V11H15.91a2.457 2.457 0 0 0-2.455 2.455 2.457 2.457 0 0 0 2.455 2.454h2.454v2.455Zm.819-3.682a.41.41 0 0 1-.41.409H15.91a1.638 1.638 0 0 1-1.636-1.636c0-.903.733-1.637 1.636-1.637h2.864a.41.41 0 0 1 .409.41v2.454Z"/><path d="M15.909 12.636a.82.82 0 0 0 0 1.637.82.82 0 0 0 0-1.636Z"/></g><defs><clipPath id="a"><path fill="currentColor" transform="translate(2 2)" d="M0 0h18v18H0z"/></clipPath></defs></svg>