<svg xmlns="http://www.w3.org/2000/svg" width="500mm" height="500mm" viewBox="0 0 1771.653 1771.653"><path style="fill:#a90000" d="m-118.264 1449.351-16.44-79.575.016-326.716c.014-261.426-.058-326.818-.36-327.226-.352-.479-10.934-.514-173.249-.584l-172.874-.073 114.265-167.33c62.846-92.032 114.346-167.632 114.445-168 .3-1.12.215-271.909-.086-272.7-.197-.519-1.762-1.54-5.625-3.671-53.854-29.708-95.187-64.764-119.302-101.186-24.174-36.51-32.218-74.493-24.157-114.063 2.747-13.483 8.316-29.66 14.353-41.69l1.51-3.01 285.034.075 285.033.075 1.333 3c14.078 31.697 18.704 63.007 13.72 92.85-6.914 41.386-31.457 80.094-73.925 116.591C106.64 72.263 81.688 89.32 55.924 103.63c-4.687 2.603-6.702 3.88-6.82 4.32-.228.846-.217 271.048.01 271.895.1.367 51.599 75.967 114.445 168l114.267 167.332-172.875.074c-162.315.069-172.897.105-173.25.583-.301.409-.373 65.8-.36 327.227l.017 326.716-16.44 79.574c-9.043 43.767-16.509 79.575-16.591 79.575-.083 0-7.548-35.808-16.59-79.575z" transform="translate(987.499 199.6)"/></svg>