<svg width="30" height="30" viewBox="0 0 30 30" fill="none" xmlns="http://www.w3.org/2000/svg">
<g clip-path="url(#clip0_109_273)">
<path d="M27.0464 2.23186C25.4063 0.591944 22.7473 0.591944 21.1072 2.23186L7.38436 15.9547C5.99241 17.3508 5.75708 19.5264 6.81829 21.1879L1.41102 26.5956C1.00745 26.9984 0.8866 27.6048 1.10491 28.1316C1.32322 28.6584 1.83761 29.0015 2.40782 29.0008C2.78156 29.0021 3.1403 28.8539 3.40416 28.5892L8.81142 23.1815C10.4721 24.2466 12.6505 24.0109 14.0451 22.6154L27.7679 8.89259C29.4055 7.25132 29.4055 4.59413 27.7679 2.95286L27.0464 2.23186ZM2.74429 27.9275C2.55538 28.1061 2.2598 28.1061 2.07089 27.9275C1.88612 27.741 1.88612 27.4405 2.07089 27.2541L7.40769 21.9182L8.08156 22.5916L2.74429 27.9275ZM27.108 8.23413L13.3852 21.9541C12.7726 22.5668 11.9417 22.911 11.0752 22.911C10.2088 22.911 9.37785 22.5668 8.76522 21.9541L8.04562 21.2345C6.77207 19.9578 6.77207 17.8912 8.04562 16.6145L21.7656 2.89173C23.042 1.6174 25.1092 1.6174 26.3856 2.89173L27.108 3.61413C28.3821 4.89061 28.3821 6.95764 27.108 8.23413Z" fill="#A4ACAD"/>
<path d="M24.0781 2.90352C23.4539 2.90128 22.8549 3.14919 22.4149 3.59185L20.0815 5.92518C19.9553 6.04104 19.9027 6.21675 19.9445 6.3829C19.9864 6.54905 20.1159 6.67893 20.2819 6.72122C20.4479 6.76351 20.6238 6.71142 20.74 6.58552L23.0733 4.25218C23.6353 3.71719 24.5181 3.71719 25.08 4.25218C25.2631 4.42904 25.5542 4.42651 25.7342 4.2465C25.9142 4.06649 25.9167 3.77543 25.7399 3.59232C25.3 3.15028 24.7017 2.9023 24.0781 2.90352Z" fill="#A4ACAD"/>
<path d="M18.0772 9.0556C18.2009 9.05557 18.3196 9.00639 18.4071 8.91887L19.4072 7.9188C19.5285 7.80163 19.5771 7.62812 19.5344 7.46496C19.4917 7.3018 19.3643 7.17438 19.2011 7.13168C19.038 7.08897 18.8645 7.13762 18.7473 7.25893L17.7472 8.259C17.6138 8.39247 17.5739 8.59315 17.6461 8.76751C17.7183 8.94186 17.8885 9.05556 18.0772 9.0556Z" fill="#A4ACAD"/>
<path d="M16.7434 10.5895C16.8782 10.4547 16.9186 10.252 16.8457 10.0758C16.7727 9.89968 16.6008 9.78482 16.4102 9.78482C16.2195 9.78482 16.0477 9.89968 15.9747 10.0758C15.9018 10.252 15.9421 10.4547 16.077 10.5895C16.261 10.7735 16.5593 10.7735 16.7434 10.5895Z" fill="#A4ACAD"/>
<path d="M19.7474 12.9266L13.0801 19.5939C12.9588 19.711 12.9101 19.8845 12.9528 20.0477C12.9956 20.2109 13.123 20.3383 13.2861 20.381C13.4493 20.4237 13.6228 20.375 13.74 20.2537L20.4072 13.5865C20.5841 13.4033 20.5816 13.1123 20.4016 12.9323C20.2215 12.7523 19.9305 12.7497 19.7474 12.9266Z" fill="#A4ACAD"/>
</g>
<defs>
<clipPath id="clip0_109_273">
<rect width="28" height="28" fill="white" transform="translate(1 1)"/>
</clipPath>
</defs>
</svg>
