<svg width="30" height="28" viewBox="0 0 30 28" fill="none" xmlns="http://www.w3.org/2000/svg">
<path d="M29.1088 10.5769C29.031 10.4602 28.9532 10.3435 28.8365 10.3046C28.9532 10.149 29.031 9.91565 28.9921 9.72116C28.9532 8.8654 28.5642 7.11498 26.6582 4.93669C24.7133 2.75839 23.0017 2.17492 22.1849 2.01932C22.0293 1.98042 21.9126 2.01932 21.7959 2.01932C21.757 1.82483 21.6403 1.63034 21.4847 1.51365C20.8234 0.969072 19.2675 0.113312 16.3502 0.113312C13.4328 0.113312 11.8769 1.00797 11.1767 1.51365C10.8266 1.78593 10.7099 2.21381 10.9044 2.6028L11.5268 4.04203L15.4166 13.4554C15.4166 13.4943 15.4555 13.5332 15.4944 13.5721C15.4166 13.5332 15.2999 13.5332 15.1832 13.5332L4.95299 14.4278L3.39706 14.5445C2.96918 14.5834 2.61909 14.8946 2.5413 15.3225C2.38571 16.1783 2.34681 17.9676 3.74714 20.496C5.10858 23.0632 6.66451 23.9968 7.44247 24.3469C7.55916 24.3858 7.67586 24.4247 7.83145 24.4247C7.83145 24.4247 7.83145 24.4247 7.87035 24.4247C7.87035 24.6192 7.94815 24.8137 8.06484 25.0082C8.60942 25.6694 9.89306 26.9142 12.7326 27.5754C13.744 27.8088 14.5997 27.8866 15.3388 27.8866C16.6613 27.8866 17.556 27.6143 18.0617 27.3809C18.1784 27.342 18.2951 27.2253 18.3729 27.1475C18.5285 27.2642 18.7229 27.3809 18.9174 27.3809C18.9952 27.3809 19.073 27.3809 19.1508 27.3809C20.0844 27.3809 21.757 27.1087 23.8964 25.5916C26.2692 23.919 27.0472 22.2853 27.3194 21.4684C27.3583 21.3517 27.3583 21.1961 27.3583 21.0794C27.5528 21.0405 27.7473 20.9627 27.9029 20.8071C28.5253 20.1848 29.5755 18.7455 29.8867 15.8671C30.2757 12.9886 29.5755 11.316 29.1088 10.5769ZM21.8348 2.87508C21.8737 2.79729 21.9515 2.75839 21.9904 2.79729C22.7295 2.95288 24.2854 3.45856 26.0358 5.44236C27.7862 7.42617 28.1363 8.9821 28.1752 9.76006C28.1752 9.83786 28.1363 9.87675 28.0585 9.91565L27.4361 10.149C27.3583 9.37108 26.9694 7.89295 25.3745 6.06473C23.7797 4.23652 22.3016 3.69194 21.5236 3.53635L21.8348 2.87508ZM27.475 15.5948C27.2027 17.9676 26.3081 19.0956 25.9191 19.4846C25.8802 19.5235 25.8413 19.5235 25.8024 19.4846L21.2513 16.8395L17.2448 14.3111L21.7959 12.7941L26.736 11.3938C26.7749 11.3938 26.8138 11.3938 26.8527 11.4327C27.1639 11.8995 27.7473 13.222 27.475 15.5948ZM21.2902 4.27542C21.7959 4.35321 23.1962 4.78109 24.83 6.60931C26.4248 8.39862 26.6582 9.83786 26.6971 10.3435C26.6971 10.3824 26.6582 10.4213 26.6193 10.4213L21.6014 12.0551L17.0503 13.3387L18.9563 8.9432L21.2124 4.31432C21.2124 4.27542 21.2513 4.27542 21.2902 4.27542ZM11.5657 2.33051C11.5268 2.25271 11.5657 2.17492 11.6046 2.13602C12.2269 1.66924 13.6273 0.891275 16.2724 0.891275C18.9174 0.891275 20.3178 1.66924 20.9012 2.13602C20.9401 2.17492 20.979 2.25271 20.9401 2.33051L20.6679 2.95288C20.0066 2.4861 18.684 1.78593 16.2724 1.78593C13.8607 1.78593 12.4603 2.4861 11.838 2.95288L11.5657 2.33051ZM12.188 3.76974C12.188 3.73084 12.188 3.69194 12.2269 3.65305C12.6548 3.34186 13.8996 2.5639 16.3113 2.5639C18.6451 2.5639 19.851 3.22517 20.3567 3.65305C20.3956 3.69194 20.3956 3.73084 20.3956 3.76974L18.2951 8.63201L16.1168 13.1442L12.188 3.76974ZM16.1946 14.0389C16.1946 14.0778 16.1946 14.0778 16.1946 14.1167C16.1946 14.1167 16.1557 14.1167 16.1168 14.1556C16.0779 14.1556 16.0779 14.1556 16.039 14.1167C16.039 14.0778 16.039 14.0389 16.0001 14L15.9612 13.9611C16.0001 13.9611 16.0779 14 16.1168 14C16.1557 14.0389 16.1557 14.0389 16.1946 14.0389ZM15.7278 15.2058L16.7002 19.9125L17.5171 24.9692C17.5171 25.0081 17.5171 25.047 17.4782 25.0859C17.0114 25.3193 15.6111 25.7472 13.2772 25.2026C10.9433 24.6581 9.93195 23.6467 9.58187 23.2188C9.54297 23.1799 9.54297 23.141 9.58187 23.1021L12.7326 18.8622L15.7278 15.2058ZM7.94815 23.6078C7.90925 23.6467 7.83145 23.6856 7.75365 23.6467C7.20908 23.4133 5.73095 22.5576 4.40841 20.107C3.16367 17.7731 3.16367 16.1783 3.31926 15.4392C3.31926 15.3614 3.39706 15.3225 3.47485 15.3225L4.17502 15.2836C4.05833 16.0616 4.09723 17.6175 5.22527 19.718C6.39222 21.8574 7.63696 22.7132 8.37603 23.0632L7.94815 23.6078ZM5.88654 19.3679C4.75849 17.2674 4.83629 15.8282 4.91409 15.2836C4.91409 15.2447 4.95299 15.2058 4.99188 15.2058L15.1832 14.35C15.1443 14.3889 15.1054 14.3889 15.1054 14.4278L12.1491 18.3955L8.9206 22.402C8.8817 22.4409 8.8428 22.4409 8.80391 22.4409C8.29823 22.2075 7.05349 21.4684 5.88654 19.3679ZM17.7116 26.6808C17.167 26.9531 15.5722 27.4587 12.8493 26.8364C10.2431 26.214 9.07619 25.1248 8.60942 24.5414C8.57052 24.5025 8.57052 24.4247 8.60942 24.3469L9.0373 23.8023C9.54297 24.4247 10.7099 25.3971 13.0438 25.9417C13.9385 26.1362 14.6775 26.214 15.3388 26.214C16.428 26.214 17.167 25.9806 17.6338 25.7861L17.7505 26.4863C17.8283 26.603 17.7894 26.6808 17.7116 26.6808ZM18.5285 24.9304L17.4782 19.7569L16.7002 15.0891L20.8623 17.5008L25.18 20.2626C25.2189 20.3015 25.2189 20.3404 25.2189 20.3793C25.0633 20.8849 24.4799 22.2075 22.4961 23.6078C20.5123 24.9693 19.1119 25.0859 18.5674 25.047C18.5674 25.0082 18.5285 25.0081 18.5285 24.9304ZM23.4685 24.9692C21.2902 26.4863 19.6954 26.6419 18.9563 26.603C18.8785 26.603 18.8396 26.5641 18.8007 26.4863L18.684 25.7861C18.7229 25.7861 18.7229 25.7861 18.7618 25.7861C19.5787 25.7861 21.0568 25.5527 22.9628 24.2302C24.9467 22.8299 25.6857 21.4684 25.9191 20.7293L26.5026 21.0794C26.5804 21.1183 26.5804 21.1961 26.5804 21.2739C26.4248 21.8574 25.7635 23.3744 23.4685 24.9692ZM29.1477 15.7893C28.8365 18.4344 27.9029 19.718 27.3583 20.2626C27.3194 20.3015 27.2416 20.3404 27.1639 20.3015L26.5804 19.9514C27.125 19.3679 27.9807 18.0843 28.253 15.7115C28.5253 13.2998 27.9807 11.8606 27.5917 11.1604L28.253 10.9659C28.3308 10.927 28.4086 10.9659 28.4475 11.0437C28.8365 11.6661 29.4588 13.1442 29.1477 15.7893Z" fill="#A4ACAD"/>
<path d="M17.9449 3.38077C17.1669 3.38077 16.5446 4.00314 16.5446 4.7811C16.5446 5.55907 17.1669 6.18144 17.9449 6.18144C18.7229 6.18144 19.3452 5.55907 19.3452 4.7811C19.3452 4.00314 18.7229 3.38077 17.9449 3.38077ZM17.9449 5.44237C17.5948 5.44237 17.3225 5.17008 17.3225 4.82C17.3225 4.46992 17.5948 4.19763 17.9449 4.19763C18.295 4.19763 18.5673 4.46992 18.5673 4.82C18.5673 5.17008 18.295 5.44237 17.9449 5.44237Z" fill="#A4ACAD"/>
<path d="M16.1167 6.60931C15.3777 6.60931 14.7942 7.19279 14.7942 7.93185C14.7942 8.67092 15.3777 9.25439 16.1167 9.25439C16.8558 9.25439 17.4393 8.67092 17.4393 7.93185C17.4393 7.19279 16.8558 6.60931 16.1167 6.60931ZM16.0778 8.47643C15.7666 8.47643 15.5333 8.24304 15.5333 7.93185C15.5333 7.62067 15.7666 7.38728 16.0778 7.38728C16.389 7.38728 16.6224 7.62067 16.6224 7.93185C16.6224 8.24304 16.389 8.47643 16.0778 8.47643Z" fill="#A4ACAD"/>
<path d="M23.0405 6.57042C22.6126 6.10364 21.8736 6.06474 21.4068 6.49262C21.1734 6.68711 21.0567 6.9983 21.0178 7.27058C21.0178 7.58177 21.0956 7.89295 21.2901 8.08744C21.4846 8.35973 21.7958 8.51532 22.107 8.51532C22.1459 8.51532 22.1459 8.51532 22.1848 8.51532C22.4571 8.51532 22.7293 8.39863 22.9627 8.20414C23.4295 7.77626 23.4684 7.03719 23.0405 6.57042ZM22.3793 7.69846C22.3015 7.77626 22.2237 7.81516 22.107 7.77626C21.9903 7.77626 21.9125 7.73736 21.8347 7.65956C21.7569 7.58177 21.718 7.50397 21.7569 7.38728C21.7958 7.27058 21.8347 7.15389 21.9125 7.11499C21.9903 7.03719 22.0681 7.03719 22.1459 7.03719C22.2626 7.03719 22.3404 7.07609 22.4182 7.15389C22.5737 7.30948 22.5349 7.54287 22.3793 7.69846Z" fill="#A4ACAD"/>
<path d="M26.1914 16.1005C25.9191 15.8282 25.6079 15.6337 25.2578 15.5948C24.5188 15.517 23.8186 16.0616 23.7408 16.8006C23.663 17.5397 24.2076 18.2399 24.9466 18.3177C24.9855 18.3177 25.0633 18.3177 25.1022 18.3177C25.8024 18.3177 26.3859 17.812 26.4637 17.1118C26.5026 16.7617 26.3859 16.3728 26.1914 16.1005ZM25.0244 17.5786C24.6744 17.5397 24.441 17.2285 24.4799 16.9173C24.5188 16.5672 24.8299 16.3339 25.1411 16.3728C25.2967 16.3728 25.4523 16.4894 25.5301 16.6061C25.6079 16.7228 25.6857 16.8784 25.6857 17.034C25.6468 17.3841 25.3356 17.6175 25.0244 17.5786Z" fill="#A4ACAD"/>
<path d="M26.5415 12.5996C26.3859 12.3662 26.1136 12.2106 25.8024 12.1717C25.4912 12.1328 25.18 12.2106 24.9466 12.4051C24.7132 12.5996 24.5577 12.8719 24.5188 13.1831C24.4799 13.4943 24.5577 13.8055 24.7521 14.0389C24.9466 14.2722 25.2189 14.4278 25.5301 14.4667C25.569 14.4667 25.6079 14.4667 25.6468 14.4667C25.9191 14.4667 26.1525 14.3889 26.347 14.2333C26.5804 14.0389 26.736 13.7666 26.7749 13.4554C26.8138 13.1442 26.736 12.833 26.5415 12.5996ZM25.8802 13.611C25.8024 13.6888 25.6857 13.6888 25.6079 13.6888C25.4912 13.6888 25.4134 13.611 25.3745 13.5332C25.2967 13.4554 25.2967 13.3387 25.2967 13.2609C25.2967 13.1442 25.3745 13.0664 25.4523 13.0275C25.5301 12.9497 25.6468 12.9497 25.7246 12.9497C25.8413 12.9497 25.9191 13.0275 25.958 13.1053C25.9969 13.1831 26.0358 13.2998 26.0358 13.3776C26.0358 13.4554 25.958 13.5721 25.8802 13.611Z" fill="#A4ACAD"/>
<path d="M20.7067 18.3177C20.4733 18.0065 20.201 17.812 19.851 17.7731C19.5009 17.6953 19.1508 17.7731 18.8396 18.0065C18.2561 18.4344 18.1005 19.2512 18.5284 19.8736C18.7618 20.2237 19.1897 20.4182 19.6176 20.4182C19.8899 20.4182 20.1621 20.3404 20.3955 20.1848C20.7067 19.9903 20.9012 19.6791 20.9401 19.329C21.0179 18.9789 20.9401 18.6288 20.7067 18.3177ZM20.1621 19.2123C20.1232 19.3679 20.0454 19.4846 19.9288 19.5624C19.6954 19.7569 19.3453 19.6791 19.1508 19.4068C18.9952 19.1734 19.0341 18.8233 19.3064 18.6288C19.5398 18.4733 19.8899 18.5122 20.0843 18.7844C20.1621 18.9011 20.201 19.0567 20.1621 19.2123Z" fill="#A4ACAD"/>
<path d="M15.1832 21.7407C14.872 21.6629 14.5608 21.7018 14.3274 21.8963C14.0551 22.0519 13.8995 22.3242 13.8217 22.5965C13.6273 23.2188 14.0162 23.8412 14.6386 23.9968C14.7164 24.0357 14.8331 24.0357 14.9109 24.0357C15.4166 24.0357 15.9222 23.6856 16.0389 23.141C16.1945 22.5187 15.8055 21.8963 15.1832 21.7407ZM15.2221 22.9854C15.1832 23.1799 14.9887 23.2966 14.7553 23.2577C14.6386 23.2188 14.5608 23.1799 14.5219 23.1021C14.483 23.0243 14.5219 22.9077 14.5219 22.791C14.5608 22.6743 14.5997 22.5965 14.6775 22.5576C14.7553 22.5187 14.7942 22.5187 14.872 22.5187C14.9109 22.5187 14.9498 22.5187 14.9498 22.5187C15.1443 22.5576 15.261 22.7521 15.2221 22.9854Z" fill="#A4ACAD"/>
<path d="M8.29822 16.1783C7.94813 15.517 7.09237 15.2447 6.43111 15.6337C5.76984 15.9838 5.49755 16.8395 5.88653 17.5008C6.11992 17.9676 6.6256 18.2399 7.09237 18.2399C7.32576 18.2399 7.52025 18.201 7.75364 18.0843C8.41491 17.6953 8.6483 16.8395 8.29822 16.1783ZM7.36466 17.3841C7.05348 17.5397 6.70339 17.423 6.5478 17.1507C6.39221 16.8395 6.5089 16.4895 6.78119 16.3339C7.09238 16.1783 7.44246 16.295 7.59805 16.5672C7.75364 16.8395 7.63695 17.2285 7.36466 17.3841Z" fill="#A4ACAD"/>
<path d="M11.8768 16.3339C11.7212 16.0227 11.41 15.7893 11.0989 15.6726C10.7488 15.5559 10.3987 15.5948 10.0875 15.7893C9.77632 15.9449 9.54293 16.2561 9.42624 16.5672C9.30954 16.9173 9.34844 17.2674 9.54293 17.5786C9.69852 17.9287 9.97081 18.1621 10.3209 18.2399C10.4376 18.2788 10.5932 18.2788 10.7099 18.2788C10.9433 18.2788 11.1378 18.2399 11.3322 18.1232C11.6434 17.9676 11.8768 17.6564 11.9935 17.3452C12.1102 16.9951 12.0713 16.645 11.8768 16.3339ZM10.9433 17.4619C10.8266 17.5397 10.671 17.5397 10.5154 17.5008C10.3598 17.4619 10.2431 17.3452 10.2042 17.2285C10.1653 17.1118 10.1264 16.9562 10.1653 16.8006C10.2042 16.645 10.3209 16.5283 10.4376 16.4895C10.5543 16.4117 10.7099 16.4117 10.8655 16.4506C11.0211 16.4895 11.1378 16.6061 11.1767 16.7228C11.3322 16.9951 11.2156 17.3452 10.9433 17.4619Z" fill="#A4ACAD"/>
<path d="M13.316 10.8881L7.05343 2.79729L6.08098 1.55255C5.80869 1.20247 5.38081 1.08577 4.99183 1.28026C4.21386 1.63035 2.69683 2.5639 1.2965 5.09228C-0.103835 7.62067 -0.0649366 9.44888 0.051758 10.3046C0.129554 10.7325 0.44074 11.0437 0.86862 11.0826L2.42455 11.1993L12.5381 12.2884C12.6159 12.2884 12.6548 12.2884 12.6548 12.2884C12.966 12.2884 13.2382 12.1329 13.3938 11.8606C13.5494 11.5494 13.5494 11.1993 13.316 10.8881ZM1.64658 10.3824L0.985315 10.3046C0.907518 10.3046 0.86862 10.2268 0.829722 10.1879C0.713027 9.44888 0.713027 7.81516 1.95777 5.48127C3.24141 3.14737 4.60285 2.29161 5.26412 2.01933C5.34191 1.98043 5.41971 2.01933 5.45861 2.05823L5.88649 2.6028C5.14742 2.95288 3.90268 3.80864 2.73573 5.90915C1.56879 8.04855 1.52989 9.56558 1.64658 10.3824ZM12.7715 11.4716C12.7326 11.5105 12.7326 11.5105 12.6937 11.5105L2.58014 10.4213C2.50234 10.4213 2.46345 10.3824 2.46345 10.3435C2.38565 9.79896 2.30785 8.35973 3.4748 6.25923C4.64174 4.15873 5.88649 3.45856 6.35326 3.22517C6.39216 3.22517 6.43106 3.22517 6.46996 3.26407L12.7715 11.3549C12.8104 11.3938 12.8104 11.4327 12.7715 11.4716Z" fill="#A4ACAD"/>
<path d="M7.52017 5.48127C7.40347 5.13118 7.17008 4.82 6.8589 4.66441C6.54771 4.46992 6.15873 4.43102 5.80865 4.54771C5.45856 4.66441 5.14738 4.8978 4.99178 5.20898C4.79729 5.52017 4.75839 5.90915 4.87509 6.25923C4.99178 6.60932 5.22517 6.9205 5.53636 7.11499C5.73085 7.23169 5.96424 7.27059 6.19763 7.27059C6.7033 7.27059 7.17008 6.9983 7.40347 6.53152C7.59796 6.22033 7.63686 5.83135 7.52017 5.48127ZM6.7033 6.18144C6.54771 6.49262 6.15873 6.57042 5.88644 6.41482C5.73085 6.33703 5.65305 6.22033 5.61415 6.06474C5.57526 5.90915 5.61415 5.75356 5.69195 5.59796C5.76975 5.44237 5.88644 5.36457 6.04203 5.32568C6.08093 5.32568 6.15873 5.28678 6.19763 5.28678C6.31432 5.28678 6.39212 5.32568 6.46992 5.36457C6.62551 5.44237 6.7033 5.55906 6.7422 5.71466C6.7811 5.87025 6.7811 6.02584 6.7033 6.18144Z" fill="#A4ACAD"/>
<path d="M8.14262 8.24304C7.59804 7.85405 6.89787 8.04854 6.58669 8.63202C6.4311 8.9043 6.3922 9.21549 6.50889 9.52667C6.58669 9.83786 6.78118 10.0712 7.05347 10.2268C7.20906 10.3046 7.40355 10.3824 7.59804 10.3824C7.71474 10.3824 7.83143 10.3824 7.90923 10.3435C8.22041 10.2657 8.4538 10.0712 8.60939 9.79896C8.92058 9.25439 8.72609 8.55422 8.14262 8.24304ZM7.94812 9.33218C7.83143 9.52667 7.63694 9.56557 7.44245 9.48778C7.36465 9.44888 7.28686 9.37108 7.24796 9.25439C7.20906 9.13769 7.24796 9.0599 7.28686 8.9821C7.32575 8.9043 7.40355 8.82651 7.52024 8.78761C7.52024 8.82651 7.55914 8.78761 7.59804 8.78761C7.67584 8.78761 7.71474 8.78761 7.79253 8.82651C7.98702 8.9432 8.02592 9.13769 7.94812 9.33218Z" fill="#A4ACAD"/>
<path d="M4.83628 8.78761L4.36951 7.81515C4.29171 7.62066 4.05832 7.54287 3.86383 7.62066C3.66934 7.69846 3.59154 7.93185 3.66934 8.12634L4.13612 9.09879C4.21391 9.25439 4.33061 9.33218 4.4862 9.33218C4.5251 9.33218 4.60289 9.33218 4.64179 9.29328C4.83628 9.21549 4.91408 8.9821 4.83628 8.78761Z" fill="#A4ACAD"/>
<path d="M15.1053 5.63685L14.6385 4.6644C14.5608 4.46991 14.3274 4.39211 14.1329 4.46991C13.9384 4.5477 13.8606 4.78109 13.9384 4.97558L14.4052 5.94804C14.483 6.10363 14.5996 6.18143 14.7552 6.18143C14.7941 6.18143 14.8719 6.18143 14.9108 6.14253C15.1053 6.06473 15.222 5.83134 15.1053 5.63685Z" fill="#A4ACAD"/>
<path d="M21.9514 10.4991L21.4846 9.52667C21.4068 9.33218 21.1734 9.25438 20.9789 9.33218C20.7845 9.40998 20.7067 9.64337 20.7845 9.83786L21.2512 10.8103C21.329 10.9659 21.4457 11.0437 21.6013 11.0437C21.6402 11.0437 21.718 11.0437 21.7569 11.0048C21.9514 10.927 22.0292 10.6936 21.9514 10.4991Z" fill="#A4ACAD"/>
<path d="M12.6158 23.1799L12.149 22.2075C12.0712 22.013 11.8379 21.9352 11.6434 22.013C11.4489 22.0908 11.3711 22.3242 11.4489 22.5187L11.9157 23.4911C11.9935 23.6467 12.1101 23.7245 12.2657 23.7245C12.3046 23.7245 12.3824 23.7245 12.4213 23.6856C12.6158 23.6078 12.6936 23.3744 12.6158 23.1799Z" fill="#A4ACAD"/>
<path d="M20.59 22.3242L19.5009 22.1297C19.3064 22.0908 19.073 22.2464 19.0341 22.4409C18.9952 22.6354 19.1508 22.8688 19.3453 22.9077L20.4344 23.1021C20.4733 23.1021 20.4733 23.1021 20.5122 23.1021C20.7067 23.1021 20.8623 22.9854 20.9012 22.791C20.979 22.5576 20.8234 22.3631 20.59 22.3242Z" fill="#A4ACAD"/>
<path d="M22.3793 15.0502L21.2902 14.8557C21.0957 14.8168 20.8623 14.9724 20.8234 15.1669C20.7845 15.3614 20.9401 15.5948 21.1346 15.6337L22.2237 15.8282C22.2626 15.8282 22.2626 15.8282 22.3015 15.8282C22.496 15.8282 22.6516 15.7115 22.6905 15.517C22.7294 15.3225 22.5738 15.0891 22.3793 15.0502Z" fill="#A4ACAD"/>
<path d="M25.0633 8.98209L23.9741 8.7876C23.7796 8.7487 23.5462 8.9043 23.5073 9.09879C23.4684 9.33218 23.624 9.52667 23.8185 9.56557L24.9077 9.76006C24.9466 9.76006 24.9466 9.76006 24.9855 9.76006C25.18 9.76006 25.3356 9.64336 25.3745 9.44887C25.4134 9.25438 25.2578 9.02099 25.0633 8.98209Z" fill="#A4ACAD"/>
<path d="M15.1053 19.7958L14.6385 18.8233C14.5608 18.6288 14.3274 18.551 14.1329 18.6288C13.9384 18.7066 13.8606 18.94 13.9384 19.1345L14.4052 20.107C14.483 20.2626 14.5997 20.3404 14.7552 20.3404C14.7941 20.3404 14.8719 20.3404 14.9108 20.3015C15.1053 20.2237 15.1831 19.9903 15.1053 19.7958Z" fill="#A4ACAD"/>
<path d="M9.07612 19.2901C8.95943 19.1345 8.68714 19.0956 8.53155 19.2512L7.67579 19.9514C7.5202 20.0681 7.4813 20.3404 7.63689 20.496C7.71469 20.5738 7.83138 20.6516 7.94808 20.6516C8.02587 20.6516 8.10367 20.6127 8.18147 20.5738L9.03723 19.8736C9.19282 19.718 9.23172 19.4846 9.07612 19.2901Z" fill="#A4ACAD"/>
<path d="M19.8121 11.0826C19.6954 10.927 19.4231 10.8881 19.2675 11.0437L18.4118 11.705C18.2562 11.8606 18.2173 12.094 18.3729 12.2496C18.4507 12.3273 18.5673 12.4051 18.684 12.4051C18.7618 12.4051 18.8396 12.3662 18.9174 12.3273L19.7732 11.6272C19.9288 11.5105 19.9677 11.2382 19.8121 11.0826Z" fill="#A4ACAD"/>
<path d="M23.274 20.4571C23.1573 20.3015 22.885 20.2626 22.7294 20.4182L21.8737 21.1183C21.7181 21.235 21.6792 21.5073 21.8348 21.6629C21.9126 21.7407 22.0293 21.7796 22.146 21.7796C22.2238 21.7796 22.3015 21.7407 22.3793 21.7018L23.2351 21.0016C23.3907 20.8849 23.4296 20.6127 23.274 20.4571Z" fill="#A4ACAD"/>
</svg>
