<svg width="30" height="30" viewBox="0 0 30 30" fill="none" xmlns="http://www.w3.org/2000/svg">
<path d="M27.65 15.3779C27.5326 15.1377 27.5326 14.8622 27.65 14.622L28.7384 12.3956C29.3443 11.1559 28.8642 9.67838 27.6454 9.03168L25.4562 7.87016C25.2201 7.74489 25.0582 7.52193 25.0119 7.25868L24.5838 4.81773C24.3454 3.45867 23.0882 2.54541 21.7223 2.73867L19.2686 3.08576C19.0037 3.12315 18.7418 3.038 18.5497 2.85215L16.7686 1.12913C15.7769 0.169712 14.2233 0.169655 13.2316 1.12913L11.4504 2.85232C11.2582 3.03823 10.9964 3.12321 10.7316 3.08593L8.27785 2.73885C6.91144 2.54547 5.65475 3.45884 5.41634 4.8179L4.98821 7.25874C4.94199 7.52205 4.78007 7.74495 4.54395 7.87027L2.35485 9.03179C1.13599 9.67844 0.655884 11.1561 1.26183 12.3958L2.35012 14.6221C2.46752 14.8624 2.46752 15.1379 2.35012 15.378L1.26178 17.6044C0.655827 18.8441 1.13594 20.3216 2.35479 20.9683L4.5439 22.1298C4.78007 22.2551 4.94199 22.4781 4.98821 22.7413L5.41634 25.1823C5.63337 26.4195 6.69424 27.2871 7.9135 27.287C8.03358 27.287 8.15543 27.2786 8.27791 27.2613L10.7316 26.9142C10.9963 26.8766 11.2583 26.9619 11.4505 27.1478L13.2316 28.8708C13.7275 29.3506 14.3637 29.5904 15.0001 29.5903C15.6363 29.5903 16.2728 29.3505 16.7686 28.8708L18.5497 27.1478C18.7419 26.9619 19.0038 26.877 19.2686 26.9142L21.7223 27.2613C23.0889 27.4546 24.3454 26.5413 24.5838 25.1822L25.012 22.7414C25.0582 22.4781 25.2201 22.2552 25.4562 22.1298L27.6454 20.9683C28.8642 20.3217 29.3443 18.844 28.7384 17.6043L27.65 15.3779ZM26.8565 19.4815L24.6674 20.643C23.9695 21.0134 23.4908 21.6722 23.3543 22.4505L22.9262 24.8914C22.8455 25.3512 22.4204 25.66 21.958 25.5948L19.5043 25.2477C18.7218 25.1368 17.9475 25.3887 17.3795 25.938L15.5984 27.661C15.2629 27.9855 14.7373 27.9855 14.4017 27.661L12.6206 25.938C12.1406 25.4737 11.5131 25.222 10.858 25.222C10.738 25.222 10.617 25.2305 10.4959 25.2476L8.04213 25.5947C7.58014 25.66 7.15469 25.3511 7.07399 24.8913L6.6458 22.4504C6.50924 21.6721 6.03062 21.0133 5.33262 20.643L3.14352 19.4815C2.73112 19.2627 2.56869 18.7628 2.77369 18.3434L3.86203 16.1169C4.209 15.407 4.209 14.5928 3.86203 13.8829L2.77369 11.6565C2.56869 11.2371 2.73112 10.7372 3.14352 10.5184L5.33262 9.35688C6.03056 8.98648 6.50924 8.32776 6.64574 7.54946L7.07387 5.10856C7.15458 4.64874 7.57963 4.33984 8.04202 4.40515L10.4957 4.75224C11.278 4.86298 12.0526 4.61124 12.6205 4.06188L14.4016 2.33887C14.7371 2.01435 15.2628 2.01435 15.5983 2.33887L17.3794 4.06188C17.9474 4.6113 18.7218 4.86298 19.5042 4.75224L21.9579 4.40515C22.4199 4.33978 22.8454 4.64874 22.926 5.10856L23.3542 7.54952C23.4907 8.32781 23.9694 8.9866 24.6674 9.35688L26.8565 10.5184C27.2689 10.7372 27.4313 11.2371 27.2263 11.6565L26.1379 13.8829C25.791 14.5927 25.791 15.407 26.1379 16.1169L27.2263 18.3433C27.4313 18.7628 27.2689 19.2627 26.8565 19.4815Z" fill="#A4ACAD"/>
<path d="M21.1487 8.8512C20.8202 8.52258 20.2873 8.52258 19.9586 8.8512L8.85132 19.9586C8.5227 20.2872 8.5227 20.82 8.85132 21.1487C9.01564 21.313 9.23101 21.3952 9.44633 21.3952C9.66165 21.3952 9.87709 21.313 10.0413 21.1487L21.1487 10.0413C21.4774 9.71265 21.4774 9.17988 21.1487 8.8512Z" fill="#A4ACAD"/>
<path d="M11.634 7.42639C9.93265 7.42639 8.54846 8.81058 8.54846 10.5119C8.54846 12.2133 9.93265 13.5975 11.634 13.5975C13.3354 13.5975 14.7196 12.2133 14.7196 10.5119C14.7196 8.81058 13.3354 7.42639 11.634 7.42639ZM11.634 11.9144C10.8607 11.9144 10.2315 11.2853 10.2315 10.5119C10.2315 9.73854 10.8607 9.1094 11.634 9.1094C12.4073 9.1094 13.0366 9.73854 13.0366 10.5119C13.0365 11.2853 12.4073 11.9144 11.634 11.9144Z" fill="#A4ACAD"/>
<path d="M18.3661 16.4025C16.6647 16.4025 15.2805 17.7867 15.2805 19.488C15.2805 21.1894 16.6647 22.5736 18.3661 22.5736C20.0674 22.5736 21.4516 21.1894 21.4516 19.488C21.4516 17.7867 20.0674 16.4025 18.3661 16.4025ZM18.3661 20.8905C17.5927 20.8905 16.9635 20.2614 16.9635 19.488C16.9635 18.7147 17.5927 18.0855 18.3661 18.0855C19.1394 18.0855 19.7686 18.7147 19.7686 19.488C19.7686 20.2614 19.1394 20.8905 18.3661 20.8905Z" fill="#A4ACAD"/>
</svg>
