<svg width="30" height="30" viewBox="0 0 30 30" fill="none" xmlns="http://www.w3.org/2000/svg">
<g clip-path="url(#clip0_17_661)">
<path d="M14.9999 9.21054C16.3079 9.21054 17.6602 8.97893 18.6117 8.53523C18.6897 8.52378 18.765 8.48926 18.825 8.42948C19.4795 8.07804 19.8966 7.61178 19.8966 7.03816C19.8966 5.62717 17.3737 4.86578 14.9998 4.86578C12.6259 4.86578 10.103 5.62717 10.103 7.03816C10.103 8.44915 12.626 9.21054 14.9999 9.21054ZM14.4357 8.43312C14.4212 8.41074 14.4045 8.38936 14.3849 8.36977L12.0859 6.0707C12.4088 5.9535 12.791 5.85148 13.2266 5.77498L15.8659 8.4143C15.5915 8.4355 15.3028 8.44737 14.9998 8.44737C14.8058 8.44729 14.6182 8.44211 14.4357 8.43312ZM19.1334 7.03816C19.1334 7.23779 18.952 7.46405 18.6128 7.67607L16.6989 5.76209C18.238 6.01837 19.1334 6.59429 19.1334 7.03816ZM15.4972 5.63989L17.8765 8.01927C17.574 8.12647 17.2207 8.22009 16.8222 8.29252C16.8199 8.29014 16.8183 8.28734 16.816 8.28497L14.1892 5.65821C14.4471 5.63963 14.717 5.62912 14.9999 5.62912C15.1702 5.62903 15.3358 5.63293 15.4972 5.63989ZM11.356 6.42027L13.2395 8.30371C11.738 8.0426 10.8664 7.47618 10.8664 7.03816C10.8664 6.8448 11.0372 6.62643 11.356 6.42027Z" fill="#A4ACAD"/>
<path d="M7.66421 15.5709C10.0381 15.5709 12.561 14.8096 12.561 13.3986C12.561 11.9876 10.0381 11.2262 7.66421 11.2262C5.29033 11.2262 2.76746 11.9876 2.76746 13.3986C2.76746 14.8096 5.29033 15.5709 7.66421 15.5709ZM5.00064 14.4499L6.53112 13.2137L8.11622 14.7988C7.96917 14.8046 7.81855 14.8077 7.66412 14.8077C6.5865 14.8077 5.68476 14.6621 5.00064 14.4499ZM11.7977 13.3986C11.7977 13.8663 10.8034 14.4804 9.10963 14.7127L8.43331 14.0364L10.3837 12.3646C11.2905 12.6558 11.7977 13.0645 11.7977 13.3986ZM9.47132 12.1415L7.89208 13.4952L6.45225 12.0553C6.82624 12.0134 7.23068 11.9894 7.66421 11.9894C8.33909 11.9894 8.94443 12.0469 9.47132 12.1415ZM5.52558 12.2082L5.98845 12.671L4.20745 14.1095L4.23188 14.1397C3.77706 13.8996 3.5307 13.631 3.5307 13.3986C3.5307 12.9988 4.25715 12.4922 5.52558 12.2082Z" fill="#A4ACAD"/>
<path d="M22.6949 9.36479V7.03849C22.6949 7.03739 22.6946 7.03646 22.6946 7.03536C22.6918 4.77232 19.3129 3.00006 14.9999 3.00006C10.6852 3.00006 7.30527 4.77385 7.30527 7.03824C7.30527 7.03833 7.30527 7.03841 7.30527 7.03849V7.03858V9.36488C3.16355 9.46003 -0.0303955 11.1974 -0.0303955 13.3986V22.9618C-0.0303955 25.2262 3.34944 27 7.66425 27C11.1481 27 14.0221 25.8434 14.9999 24.2061C15.9777 25.8434 18.8517 27 22.3357 27C26.6505 27 30.0303 25.2263 30.0303 22.9618V13.3986C30.0303 11.1974 26.8366 9.46011 22.6949 9.36479ZM29.2671 13.3986C29.2671 15.1738 26.0928 16.6735 22.3357 16.6735C18.5785 16.6735 15.4042 15.1738 15.4042 13.3986C15.4042 11.6233 18.5785 10.1236 22.3356 10.1236C26.0927 10.1236 29.2671 11.6234 29.2671 13.3986ZM21.2853 9.39634C21.5299 9.21528 21.7462 9.0226 21.9317 8.82017V9.36564C21.7134 9.37132 21.4979 9.38175 21.2853 9.39634ZM14.9999 12.1544C14.7587 11.7505 14.4024 11.3757 13.9496 11.0404C14.2925 11.064 14.6429 11.0763 14.9999 11.0763C15.357 11.0763 15.7074 11.064 16.0502 11.0404C15.5975 11.3756 15.2411 11.7504 14.9999 12.1544ZM14.9999 3.76323C18.7571 3.76323 21.9314 5.26292 21.9314 7.03816C21.9314 8.81339 18.7571 10.3131 14.9999 10.3131C11.2427 10.3131 8.06852 8.81339 8.06852 7.03816C8.06852 5.26292 11.2427 3.76323 14.9999 3.76323ZM8.71457 9.39634C8.50205 9.38175 8.28673 9.37124 8.06852 9.36564V8.82043C8.25391 9.02286 8.47016 9.21537 8.71457 9.39634ZM7.66425 10.1236C11.4215 10.1236 14.5957 11.6233 14.5957 13.3986C14.5957 15.1738 11.4215 16.6735 7.66425 16.6735C3.90704 16.6735 0.732853 15.1738 0.732853 13.3986C0.732853 11.6233 3.90704 10.1236 7.66425 10.1236ZM7.66425 26.2367C3.90704 26.2367 0.732853 24.737 0.732853 22.9618V15.1809C1.96669 16.5279 4.57581 17.4367 7.66425 17.4367C10.7527 17.4367 13.3619 16.5279 14.5957 15.1808V22.9618C14.5957 24.737 11.4215 26.2367 7.66425 26.2367ZM29.2671 22.9618C29.2671 24.737 26.0928 26.2367 22.3357 26.2367C18.5785 26.2367 15.4042 24.737 15.4042 22.9618V15.1809C16.638 16.5279 19.2471 17.4367 22.3356 17.4367C25.424 17.4367 28.0332 16.5279 29.267 15.1809V22.9618H29.2671Z" fill="#A4ACAD"/>
<path d="M17.4388 13.3986C17.4388 14.8096 19.9618 15.5709 22.3356 15.5709C24.7094 15.5709 27.2323 14.8096 27.2323 13.3986C27.2323 11.9876 24.7094 11.2262 22.3356 11.2262C19.9618 11.2262 17.4388 11.9876 17.4388 13.3986ZM26.4692 13.3986C26.4692 13.987 24.8966 14.8077 22.3357 14.8077C19.7747 14.8077 18.2022 13.987 18.2022 13.3986C18.2022 12.8101 19.7747 11.9894 22.3357 11.9894C24.8966 11.9894 26.4692 12.8102 26.4692 13.3986Z" fill="#A4ACAD"/>
<path d="M19.7433 13.4028C19.7433 14.1684 21.3674 14.2827 22.3355 14.2827C23.3037 14.2827 24.9277 14.1684 24.9277 13.4028C24.9277 12.6373 23.3037 12.5229 22.3355 12.5229C21.3674 12.5229 19.7433 12.6373 19.7433 13.4028ZM22.3355 13.5194C21.7439 13.5194 21.2755 13.4667 20.9507 13.4028C21.2755 13.339 21.7439 13.2861 22.3355 13.2861C22.9271 13.2861 23.3955 13.3389 23.7202 13.4028C23.3955 13.4667 22.9271 13.5194 22.3355 13.5194Z" fill="#A4ACAD"/>
</g>
<defs>
<clipPath id="clip0_17_661">
<rect width="30" height="30" fill="white"/>
</clipPath>
</defs>
</svg>
