<svg width="30" height="30" viewBox="0 0 30 30" fill="none" xmlns="http://www.w3.org/2000/svg">
<path d="M13.4908 3.15175C14.3469 3.15175 15.0472 2.45136 15.0472 1.59533C15.0472 0.739299 14.3469 0.0389099 13.4908 0.0389099C13.2574 0.0389099 13.1017 0.194552 13.1017 0.428015C13.1017 0.661478 13.2574 0.81712 13.4908 0.81712C13.9188 0.81712 14.269 1.16731 14.269 1.59533C14.269 2.02335 13.9188 2.37354 13.4908 2.37354C12.6348 2.37354 11.9344 3.07393 11.9344 3.92996C11.8955 4.78599 12.5959 5.48638 13.4908 5.48638C13.7243 5.48638 13.8799 5.33074 13.8799 5.09727C13.8799 4.86381 13.7243 4.70817 13.4908 4.70817C13.0628 4.70817 12.7126 4.35798 12.7126 3.92996C12.7126 3.50194 13.0628 3.15175 13.4908 3.15175Z" fill="#A4ACAD"/>
<path d="M16.5647 3.11284C17.4208 3.11284 18.1211 2.41245 18.1211 1.55642C18.1211 0.700389 17.4208 0 16.5647 0C16.3313 0 16.1756 0.155642 16.1756 0.389105C16.1756 0.622568 16.3313 0.77821 16.5647 0.77821C16.9927 0.77821 17.3429 1.1284 17.3429 1.55642C17.3429 1.98444 16.9927 2.33463 16.5647 2.33463C15.7087 2.33463 15.0083 3.03502 15.0083 3.89105C15.0083 4.74708 15.7087 5.44747 16.5647 5.44747C16.7982 5.44747 16.9538 5.29183 16.9538 5.05836C16.9538 4.8249 16.7982 4.66926 16.5647 4.66926C16.1367 4.66926 15.7865 4.31907 15.7865 3.89105C15.7865 3.46303 16.1367 3.11284 16.5647 3.11284Z" fill="#A4ACAD"/>
<path d="M26.9539 5.05837C26.7594 4.98055 26.5259 5.05837 26.4481 5.29184L24.1524 11.0117H23.6855L21.1563 7.15954C21.0785 7.04281 20.9617 6.96499 20.845 6.96499H9.40531C9.28857 6.96499 9.17184 7.0039 9.09402 7.12063L6.21464 10.9728H5.86445L3.56873 5.25293C3.49091 5.05837 3.25745 4.94164 3.06289 5.01946C2.86834 5.09728 2.75161 5.33075 2.82943 5.5253L5.20297 11.4397L6.52593 29.2218C6.52593 29.2996 6.52593 29.3385 6.52593 29.3774V29.6498C6.52593 29.8444 6.72048 30 6.91503 30H23.1018C23.2964 30 23.4909 29.8444 23.4909 29.6498L24.775 11.4786L27.1485 5.56421C27.2652 5.33075 27.1485 5.13619 26.9539 5.05837ZM9.59986 7.7432H20.6504L22.7516 11.0117H7.18741L9.59986 7.7432ZM23.7244 11.7899L15.0084 20.8171L6.25355 11.7899H23.7244ZM6.059 12.7237L14.4248 21.4008L7.22632 28.4047L6.059 12.7237ZM7.49869 29.2218L14.9695 21.9455L22.2069 29.2218H7.49869ZM22.7905 28.7549L15.5532 21.3619L23.9578 12.6459L22.7905 28.7549Z" fill="#A4ACAD"/>
</svg>
