<svg aria-hidden="true" style="position: absolute; width: 0; height: 0; overflow: hidden;" version="1.1" xmlns="http://www.w3.org/2000/svg" xmlns:xlink="http://www.w3.org/1999/xlink">
<defs>
<symbol id="card" viewBox="0 0 32 32">
<path d="M28.666 5.334h-25.332c-1.84 0.002-3.33 1.493-3.334 3.332v14.668c0.003 1.84 1.494 3.33 3.334 3.332h25.333c1.84-0.002 3.331-1.493 3.334-3.332v-14.668c-0.003-1.84-1.494-3.33-3.334-3.332h-0zM30.666 23.334c0 1.103-0.897 2-2 2h-25.332c-1.104-0.002-1.998-0.896-2-2v-14.668c0-1.103 0.897-2 2-2h25.332c1.103 0 2 0.897 2 2v14.668z"></path>
<path d="M31.334 9.334h-30.668c-0.368 0.001-0.665 0.299-0.666 0.666v4c0 0.368 0.298 0.666 0.666 0.666h30.668c0.368-0.001 0.665-0.299 0.666-0.666v-4c0-0.368-0.298-0.666-0.666-0.666v0zM30.666 13.334h-29.332v-2.668h29.332v2.668zM12.666 18.666h-8c-0.355 0.017-0.636 0.309-0.636 0.667s0.281 0.65 0.635 0.667l0.002 0h8c0.355-0.017 0.636-0.309 0.636-0.667s-0.281-0.65-0.635-0.667l-0.002-0zM12.666 21.334h-8c-0.368 0-0.666 0.298-0.666 0.666s0.298 0.666 0.666 0.666h8c0.349-0.024 0.624-0.313 0.624-0.666s-0.274-0.642-0.622-0.666l-0.002-0zM26 17.334h-1.334c-1.103 0-2 0.897-2 2v1.332c0 1.103 0.897 2 2 2h1.334c1.103 0 2-0.897 2-2v-1.332c0-1.103-0.897-2-2-2zM26.666 20.666c0 0 0 0.001 0 0.001 0 0.368-0.298 0.666-0.666 0.666 0 0 0 0 0 0h-1.334c0 0 0 0 0 0-0.368 0-0.666-0.298-0.666-0.666 0-0 0-0.001 0-0.002v0-1.332c0-0.368 0.298-0.668 0.666-0.668h1.334c0.368 0 0.666 0.3 0.666 0.668v1.332z"></path>
</symbol>
<symbol id="cash" viewBox="0 0 32 32">
<path fill="#fff" style="fill: var(--color1, #fff)" d="M27.901 16.109v-3.68c0-1.247-0.969-2.262-2.191-2.361l-3.418-5.968c-0.412-0.717-1.173-1.192-2.045-1.192-0.437 0-0.846 0.119-1.196 0.327l0.011-0.006-11.716 6.822h-2.057c-1.312 0-2.38 1.065-2.38 2.378v14.281c0 1.313 1.068 2.381 2.38 2.381h20.233c1.312 0 2.38-1.068 2.38-2.38v-3.68c0.691-0.247 1.19-0.902 1.19-1.676v-3.571c0-0.774-0.499-1.428-1.19-1.676zM24.327 10.051h-5.187l3.889-2.265 1.297 2.265zM22.439 6.753l-5.664 3.297h-2.349l7.425-4.323 0.588 1.025zM19.661 4.259c0.168-0.099 0.369-0.157 0.584-0.157 0.432 0 0.81 0.235 1.011 0.585l0.003 0.006v0.003l-9.197 5.354h-2.351l9.949-5.792zM26.71 26.713c-0.002 0.656-0.533 1.188-1.19 1.19h-20.231c-0.656-0.002-1.188-0.533-1.19-1.19v-14.282c0.001-0.657 0.533-1.19 1.19-1.191h20.233c0.656 0.002 1.188 0.535 1.188 1.191v3.57h-3.568c-1.971 0.002-3.569 1.599-3.571 3.571v0c0.002 1.971 1.6 3.568 3.571 3.569h3.57v3.571zM27.901 21.357c-0.001 0.329-0.267 0.595-0.596 0.595 0 0 0 0 0 0h-4.163c-1.314-0.002-2.378-1.066-2.38-2.379v-0c0-1.313 1.066-2.381 2.38-2.381h4.166c0.329 0.001 0.595 0.267 0.595 0.596 0 0 0 0 0 0v0 3.569z"></path>
<path fill="#fff" style="fill: var(--color1, #fff)" d="M23.14 18.38c-0.627 0.039-1.121 0.557-1.121 1.191s0.494 1.151 1.117 1.19l0.003 0c0.622-0.045 1.109-0.56 1.109-1.19s-0.488-1.145-1.106-1.19l-0.004-0z"></path>
</symbol>
</defs>
</svg>
